# xmcd CD database file
#
# Track frame offsets:
#	150
#	12883
#	29070
#	44840
#	56458
#	95694
#	107241
#	124370
#	149147
#	161163
#	176462
#
# Disc length: 2674 seconds
#
# Revision: 0
# Processed by: cddbd v1.5.1PL0 Copyright (c) Steve Scherf et al.
# Submitted via: CDex 1.50beta10
#
DISCID=a80a700b
DTITLE=Cappozo CHarmasson Ponthieux Trio - Sophisticated Ladies
DYEAR=2004
DGENRE=Jazz
TTITLE0=Ophelia (art pepper)
TTITLE1=Sweet lorraine
TTITLE2=wendy
TTITLE3=azalea solo
TTITLE4=Ophelia - have you met miss jones
TTITLE5=Azalea duo
TTITLE6=béatrice
TTITLE7=Stella by strlight
TTITLE8=Azalea duo
TTITLE9=have you met miss jones
TTITLE10=Azalea
EXTD=YEAR: 2004
EXTT0=
EXTT1=
EXTT2=
EXTT3=
EXTT4=
EXTT5=
EXTT6=
EXTT7=
EXTT8=
EXTT9=
EXTT10=
PLAYORDER=
